<svg xmlns="http://www.w3.org/2000/svg" viewBox="0 0 24 24" fill="currentColor">
  <path d="M12 2.163c3.204 0 3.584.012 4.85.07 1.366.062 2.633.343 3.608 1.318.975.975 1.256 2.242 1.318 3.608.058 1.266.07 1.646.07 4.84 0 3.204-.012 3.584-.07 4.85-.062 1.366-.343 2.633-1.318 3.608-.975.975-2.242 1.256-3.608 1.318-1.266.058-1.646.07-4.85.07-3.194 0-3.574-.012-4.84-.07-1.366-.062-2.633-.343-3.608-1.318-.975-.975-1.256-2.242-1.318-3.608-.058-1.266-.07-1.646-.07-4.85 0-3.194.012-3.574.07-4.84.062-1.366.343-2.633 1.318-3.608.975-.975 2.242-1.256 3.608-1.318 1.266-.058 1.646-.07 4.84-.07zM12 6.865a5.135 5.135 0 1 0 0 10.27 5.135 5.135 0 0 0 0-10.27zm0 8.468a3.333 3.333 0 1 1 0-6.666 3.333 3.333 0 0 1 0 6.666zm6.406-9.845a1.2 1.2 0 1 1-2.4 0 1.2 1.2 0 0 1 2.4 0z"/>
</svg>
