<svg xmlns="http://www.w3.org/2000/svg" viewBox="0 0 24 24" fill="currentColor">
  <path d="M23.643 4.937c-.835.37-1.732.62-2.675.733a4.68 4.68 0 0 0 2.048-2.578 9.37 9.37 0 0 1-2.965 1.133 4.66 4.66 0 0 0-7.93 4.248A13.23 13.23 0 0 1 1.671 3.149a4.66 4.66 0 0 0 1.443 6.213 4.64 4.64 0 0 1-2.112-.584v.06a4.66 4.66 0 0 0 3.737 4.566 4.67 4.67 0 0 1-2.104.08 4.66 4.66 0 0 0 4.35 3.234A9.34 9.34 0 0 1 .96 19.54a13.19 13.19 0 0 0 7.548 2.212c9.057 0 14.01-7.496 14.01-13.986 0-.21-.006-.423-.016-.634a10.01 10.01 0 0 0 2.46-2.548z"/>
</svg>
